<?xml version="1.0" encoding="UTF-8" standalone="no"?>
<!-- Created with Inkscape (http://www.inkscape.org/) -->

<svg
   width="210mm"
   height="297mm"
   viewBox="0 0 210 297"
   version="1.1"
   id="svg5"
   xml:space="preserve"
   inkscape:version="1.2.2 (732a01da63, 2022-12-09)"
   sodipodi:docname="Logo 2.0.svg"
   inkscape:export-filename="Logo 2.0.png"
   inkscape:export-xdpi="96"
   inkscape:export-ydpi="96"
   xmlns:inkscape="http://www.inkscape.org/namespaces/inkscape"
   xmlns:sodipodi="http://sodipodi.sourceforge.net/DTD/sodipodi-0.dtd"
   xmlns="http://www.w3.org/2000/svg"
   xmlns:svg="http://www.w3.org/2000/svg"><sodipodi:namedview
     id="namedview7"
     pagecolor="#ffffff"
     bordercolor="#000000"
     borderopacity="0.25"
     inkscape:showpageshadow="2"
     inkscape:pageopacity="0.0"
     inkscape:pagecheckerboard="0"
     inkscape:deskcolor="#d1d1d1"
     inkscape:document-units="mm"
     showgrid="false"
     inkscape:zoom="0.69130191"
     inkscape:cx="224.9379"
     inkscape:cy="614.78204"
     inkscape:window-width="1920"
     inkscape:window-height="974"
     inkscape:window-x="-11"
     inkscape:window-y="-11"
     inkscape:window-maximized="1"
     inkscape:current-layer="layer2"><inkscape:grid
       type="xygrid"
       id="grid857" /></sodipodi:namedview><defs
     id="defs2" /><g
     inkscape:groupmode="layer"
     id="layer2"
     inkscape:label="Capa 2"><path
       style="opacity:1;fill:#0f3d91;fill-opacity:1;stroke:#0f3d91;stroke-width:0.3;stroke-linecap:round;stroke-linejoin:round;stroke-miterlimit:4.2;stroke-dasharray:none;stroke-opacity:1"
       d="m 91.377255,143.14175 1.339562,-1.31564 -0.04784,-15.30928 18.036243,16.601 2.29639,0.0239 0.81331,-0.76547 0.0478,-27.07828 -6.57821,-2.32031 -0.86114,0.74154 -0.0957,15.02223 -16.290024,-14.68734 -4.521023,-1.12428 -0.813305,0.71762 0.04784,26.71948 z"
       id="path913" /><path
       style="opacity:1;fill:#f28c28;fill-opacity:1;stroke:#f28c28;stroke-width:0.3;stroke-linecap:round;stroke-linejoin:round;stroke-miterlimit:4.2;stroke-dasharray:none;stroke-opacity:1"
       d="m 56.889187,108.7418 c 13.394884,-16.241891 39.06594,-9.9775 50.472943,-5.20967 1.42654,0.32993 2.15725,-0.15195 2.50335,-1.08253 C 108.59403,85.28942 92.875788,82.23691 90.809106,82.554016 73.634819,82.870024 60.331187,97.858887 56.889187,108.7418 Z"
       id="path5239"
       sodipodi:nodetypes="ccccc" /><path
       style="opacity:1;fill:#e63946;fill-opacity:1;stroke:#e63946;stroke-width:0.3;stroke-linecap:round;stroke-linejoin:round;stroke-miterlimit:4.2;stroke-dasharray:none;stroke-opacity:1"
       d="m 95.927907,80.528378 c 2.05225,0.793112 7.636603,3.338969 12.479583,7.746972 3.40517,3.099336 13.45527,20.12056 16.13193,35.73326 l 1.35316,0.74424 c 6.20812,-4.15157 9.57276,-10.15403 9.54765,-17.2289 -0.0452,-7.11972 -3.83389,-17.249335 -16.23794,-22.597798 -3.2404,-1.873134 -6.4808,-2.887972 -9.7212,-3.460105 -4.51773,-0.797659 -9.03545,-0.734805 -13.553183,-0.937669 z"
       id="path5269"
       sodipodi:nodetypes="csccccsc" /><path
       style="opacity:1;fill:#7b4ab8;fill-opacity:1;stroke:#7b4ab8;stroke-width:0.3;stroke-linecap:round;stroke-linejoin:round;stroke-miterlimit:4.2;stroke-dasharray:none;stroke-opacity:1"
       d="m 137.30509,100.75419 c 6.86591,19.65779 -16.20713,43.753 -21.81572,47.84149 -0.73668,2.18224 3.17333,2.95027 6.41076,3.923 12.29406,0.40423 18.82914,-6.03033 22.4855,-15.88337 3.75429,-13.89126 0.17364,-24.80389 -7.08054,-35.88112 z"
       id="path5271"
       sodipodi:nodetypes="ccccc" /><path
       style="opacity:1;fill:#123f8c;fill-opacity:1;stroke:#123f8c;stroke-width:0.3;stroke-linecap:round;stroke-linejoin:round;stroke-miterlimit:4.2;stroke-dasharray:none;stroke-opacity:1"
       d="m 88.620831,153.73443 c -0.0093,-1.12007 0.779927,-1.98278 1.691453,-1.89443 19.989456,7.45948 39.931316,8.54581 50.540596,-3.31524 -3.63298,5.99884 -10.89896,21.73858 -30.9874,24.01862 -4.24949,0.26213 -16.364773,0.16019 -21.244649,-18.80895 z"
       id="path5273"
       sodipodi:nodetypes="ccccc" /><path
       style="opacity:1;fill:#18a6a6;fill-opacity:1;stroke:#18a6a6;stroke-width:0.3;stroke-linecap:round;stroke-linejoin:round;stroke-miterlimit:4.2;stroke-dasharray:none;stroke-opacity:1"
       d="m 102.22011,174.64078 c -6.333993,-2.55753 -12.173078,-3.42379 -20.926169,-22.44267 -3.183207,-6.5185 -7.071596,-18.76781 -7.713022,-20.70337 -7.281687,2.16862 -10.592166,16.61347 -9.181683,22.57798 2.686137,12.71032 20.431781,22.17771 37.820874,20.56806 z"
       id="path5275"
       sodipodi:nodetypes="ccccc" /><path
       style="opacity:1;fill:#35a853;fill-opacity:1;stroke:#35a853;stroke-width:0.3;stroke-linecap:round;stroke-linejoin:round;stroke-miterlimit:4.2;stroke-dasharray:none;stroke-opacity:1"
       d="m 62.369493,156.98202 c -3.288361,-11.72715 -0.860572,-17.16653 1.082529,-23.13907 5.57304,-10.2587 12.461197,-20.05234 20.026794,-26.38666 -0.78295,-2.93683 -4.167033,-3.43776 -6.630493,-3.78885 -15.472433,-0.93506 -21.029765,11.15416 -21.379955,11.50188 -6.203757,14.92691 0.37446,34.84177 6.901125,41.8127 z"
       id="path5277"
       sodipodi:nodetypes="cccccc" /><text
       xml:space="preserve"
       style="font-style:normal;font-variant:normal;font-weight:normal;font-stretch:normal;font-size:29.5041px;font-family:Montserrat;-inkscape-font-specification:'Montserrat, @wght=659';font-variant-ligatures:normal;font-variant-caps:normal;font-variant-numeric:normal;font-variant-east-asian:normal;font-variation-settings:'wght' 659;display:inline;fill:#0f3d91;fill-opacity:1;stroke:none;stroke-width:0.696945;stroke-linecap:round;stroke-linejoin:round;stroke-miterlimit:4.2;stroke-dasharray:none;stroke-opacity:1;paint-order:normal"
       x="26.615282"
       y="204.4809"
       id="text6100"
       transform="scale(1.0181873,0.98213756)"><tspan
         sodipodi:role="line"
         id="tspan6098"
         style="fill:#0f3d91;fill-opacity:1;stroke-width:0.696945"
         x="26.615282"
         y="204.4809">Nica</tspan></text><text
       xml:space="preserve"
       style="font-style:normal;font-variant:normal;font-weight:normal;font-stretch:normal;font-size:30.4973px;font-family:Montserrat;-inkscape-font-specification:'Montserrat, @wght=659';font-variant-ligatures:normal;font-variant-caps:normal;font-variant-numeric:normal;font-variant-east-asian:normal;font-variation-settings:'wght' 659;display:inline;fill:#1e293b;fill-opacity:1;stroke:none;stroke-width:0.720409;stroke-linecap:round;stroke-linejoin:round;stroke-miterlimit:4.2;stroke-dasharray:none;stroke-opacity:1;paint-order:normal"
       x="97.708229"
       y="204.48373"
       id="text6104"
       transform="scale(1.0181873,0.98213756)"><tspan
         sodipodi:role="line"
         id="tspan6102"
         style="fill:#1e293b;fill-opacity:1;stroke-width:0.720409"
         x="97.708229"
         y="204.48373">Stapp</tspan></text></g></svg>
